<svg width="45" height="37" viewBox="0 0 45 37" fill="none" xmlns="http://www.w3.org/2000/svg">
<path d="M45 35.2661V36.7506H0V35.2691C-8.41123e-07 34.888 0.151206 34.5224 0.420442 34.2526C0.689677 33.9828 1.05495 33.8308 1.43611 33.83H2.88128C2.87587 33.7818 2.87284 33.7333 2.87221 33.6849V32.3455C2.87301 31.9649 3.02457 31.6 3.29372 31.3309C3.56287 31.0617 3.92768 30.9102 4.30832 30.9094H6.46399V12.3307H2.87221C2.48626 12.3316 2.11183 12.1992 1.81226 11.9559C1.51268 11.7125 1.30633 11.3732 1.22811 10.9952C1.14989 10.6173 1.2046 10.2239 1.38298 9.88165C1.56135 9.53939 1.85246 9.26923 2.20707 9.11687L21.8349 0.612096C22.0448 0.521239 22.2712 0.474365 22.5 0.474365C22.7288 0.474365 22.9552 0.521239 23.1651 0.612096L42.7929 9.11384C43.1475 9.26621 43.4386 9.53637 43.617 9.87863C43.7954 10.2209 43.8501 10.6143 43.7719 10.9922C43.6937 11.3702 43.4873 11.7095 43.1877 11.9528C42.8882 12.1962 42.5137 12.3286 42.1278 12.3277H38.536V30.9064H40.6917C41.0723 30.9072 41.4371 31.0587 41.7063 31.3279C41.9754 31.597 42.127 31.9618 42.1278 32.3425V33.6818C42.1274 33.7303 42.1244 33.7788 42.1187 33.827H43.5639C43.9445 33.8278 44.3093 33.9793 44.5785 34.2485C44.8476 34.5176 44.9992 34.8824 45 35.2631V35.2661ZM9.81389 30.9124H16.036V15.6564H9.81389V30.9124ZM10.9537 8.98081H34.0493L22.5 3.9741L10.9537 8.98081ZM19.3889 15.6625V30.9094H25.6111V15.6595L19.3889 15.6625ZM35.1861 30.9094V15.6595H28.961V30.9094H35.1861Z" fill="black"/>
</svg>
