<svg width="324" height="180" viewBox="0 0 324 180" fill="none" xmlns="http://www.w3.org/2000/svg">
<g opacity="0.28">
<path d="M219.441 245.176C240.551 215.46 233.562 174.275 203.832 153.186C174.101 132.096 132.887 139.089 111.777 168.805" stroke="#65558F" stroke-width="0.947499" stroke-linecap="round"/>
<path d="M47.9866 241.523C28.8941 176.906 65.8053 109.067 130.43 90.0003" stroke="#65558F" stroke-width="0.947499" stroke-linecap="round"/>
<path d="M128.319 115.447C78.3262 136.187 54.6335 193.519 75.3996 243.5C96.1657 293.482 153.527 317.187 203.519 296.447" stroke="#65558F" stroke-width="0.947499" stroke-linecap="round"/>
<path d="M193 194C191.255 190.049 188.706 186.522 185.524 183.653C182.342 180.784 178.599 178.639 174.543 177.361C170.488 176.082 166.212 175.698 162 176.236" stroke="#65558F" stroke-width="0.947499" stroke-linecap="round"/>
<path d="M276.778 270.099C241.413 331.309 163.104 352.292 101.872 316.965C40.6389 281.638 19.6695 203.379 55.0352 142.169" stroke="#65558F" stroke-width="0.947499" stroke-linecap="round"/>
<path d="M296.912 282.163C338.633 209.954 313.702 117.521 241.227 75.7083C168.752 33.8958 76.1789 58.5369 34.4585 130.746" stroke="#65558F" stroke-width="0.947499" stroke-linecap="round"/>
<path d="M296 207C296 134.651 237.349 76 165 76" stroke="#86A0FA" stroke-width="0.947499" stroke-linecap="round"/>
<path d="M240.123 162.563C215.698 121.186 162.341 107.422 120.948 131.821C79.5555 156.221 65.8009 209.543 90.2267 250.92" stroke="#65558F" stroke-width="0.947499" stroke-linecap="round"/>
<path d="M228.894 313.598C169.898 348.374 93.8494 328.757 59.0357 269.782C24.222 210.808 43.8263 134.809 102.823 100.033" stroke="#7B8085" stroke-opacity="0.5" stroke-width="0.947499" stroke-linecap="round"/>
<path d="M200.473 267.015C167.168 286.646 124.238 275.572 104.585 242.28C84.9318 208.988 95.9987 166.086 129.303 146.454" stroke="#86A0FA" stroke-width="0.947499" stroke-linecap="round"/>
<path d="M287.001 288.743C241.526 355.997 150.115 373.688 82.8301 328.258C15.5452 282.828 -2.13459 191.48 43.3412 124.226" stroke="#86A0FA" stroke-width="0.947499" stroke-linecap="round"/>
<path d="M250.286 156.728C278.081 203.812 262.429 264.489 215.327 292.254" stroke="#86A0FA" stroke-width="1.3407" stroke-linecap="round"/>
<path d="M193.808 254.659C167.64 270.083 133.795 261.19 118.214 234.794C102.632 208.398 111.213 174.496 137.381 159.071" stroke="#86A0FA" stroke-width="0.947499" stroke-linecap="round"/>
<circle cx="165.5" cy="206.5" r="159.5" stroke="#65558F" stroke-width="0.947499" stroke-linecap="round"/>
<path d="M302 206C302 130.889 240.887 70 165.5 70C90.1131 70 29 130.889 29 206" stroke="#86A0FA" stroke-width="0.947499" stroke-linecap="round"/>
<path d="M165 313C105.906 313 58 265.094 58 206C58 146.906 105.906 99 165 99" stroke="#7B8085" stroke-opacity="0.5" stroke-width="0.947499" stroke-linecap="round"/>
<path d="M165 369C74.9776 369 2 296.246 2 206.5C2 116.754 74.9776 44 165 44" stroke="#86A0FA" stroke-width="0.947499" stroke-linecap="round"/>
<path d="M193.461 101.439C251.612 117.009 286.113 176.766 270.522 234.911C254.93 293.056 195.151 327.57 137 312" stroke="#7B8085" stroke-opacity="0.5" stroke-width="0.947499" stroke-linecap="round"/>
<path d="M193.461 101.439C251.612 117.009 286.113 176.766 270.522 234.911C254.93 293.056 195.151 327.57 137 312" stroke="#7B8085" stroke-opacity="0.5" stroke-width="0.947499" stroke-linecap="round"/>
<path d="M311 206C311 125.919 245.857 61 165.5 61C85.1426 61 20 125.919 20 206" stroke="#7B8085" stroke-opacity="0.5" stroke-width="0.947499" stroke-linecap="round"/>
<path d="M311 206C311 125.919 245.857 61 165.5 61C85.1426 61 20 125.919 20 206" stroke="#7B8085" stroke-opacity="0.5" stroke-width="0.947499" stroke-linecap="round"/>
<path d="M72.1544 163.476C95.9595 112.42 156.86 90.3997 208.18 114.293C259.5 138.186 281.805 198.944 258 250" stroke="#65558F" stroke-width="0.947499" stroke-linecap="round"/>
<path d="M191.528 251.184C215.926 237.109 224.169 205.734 209.94 181.106C195.71 156.479 164.397 147.924 140 162" stroke="#65558F" stroke-width="0.947499" stroke-linecap="round"/>
<path d="M61.6889 104.156C118.194 46.6322 210.666 45.772 268.231 102.235" stroke="#7B8085" stroke-opacity="0.5" stroke-width="0.947499" stroke-linecap="round"/>
<path d="M191.41 261.741C160.294 276.035 123.562 262.609 109.366 231.753C95.1693 200.896 108.885 164.294 140 150" stroke="#7B8085" stroke-opacity="0.5" stroke-width="0.947499" stroke-linecap="round"/>
<path d="M148.561 171.281C168.133 162.289 191.298 170.863 200.301 190.43" stroke="#7B8085" stroke-opacity="0.5" stroke-width="0.947499" stroke-linecap="round"/>
<path d="M89.57 171.102C108.637 129.416 158.099 111.153 200.047 130.311C241.994 149.469 260.544 198.793 241.477 240.48" stroke="#86A0FA" stroke-width="0.947499" stroke-linecap="round"/>
<path d="M133.154 94.1644C195.248 76.282 260.101 112.117 278.008 174.203C295.914 236.29 260.094 301.118 198 319" stroke="#86A0FA" stroke-width="0.947499" stroke-linecap="round"/>
<path d="M164.969 298C114.159 297.991 72.9761 257.019 72.9846 206.485C72.9931 155.95 114.19 114.991 165 115" stroke="#86A0FA" stroke-width="0.947499" stroke-linecap="round"/>
<path d="M235.961 66.5378C312.415 105.045 342.838 198.821 303.913 275.992C264.988 353.163 171.454 384.507 95 346" stroke="#354389" stroke-width="0.947499" stroke-linecap="round"/>
<path d="M226.175 164.779C248.709 197.542 239.851 242.732 206.389 265.712C172.928 288.693 127.534 280.763 105 248" stroke="#354389" stroke-width="0.947499" stroke-linecap="round"/>
<path d="M266.84 183.466C253.807 128.094 197.914 93.8589 142 107" stroke="#354389" stroke-width="0.947499" stroke-linecap="round"/>
<path d="M197 207C197 200.386 194.946 193.934 191.119 188.532C187.293 183.13 181.883 179.044 175.633 176.836C169.384 174.628 162.602 174.406 156.221 176.201C149.84 177.996 144.173 181.719 140 186.859" stroke="#86A0FA" stroke-width="0.947499" stroke-linecap="round"/>
</g>
</svg>
