<svg width="45" height="41" viewBox="0 0 45 41" fill="none" xmlns="http://www.w3.org/2000/svg">
<path d="M33.4364 1.64626L1.77517 21.8089C1.1386 22.2143 0.951186 23.0589 1.35657 23.6955L9.4007 36.3271C9.80609 36.9637 10.6508 37.1511 11.2873 36.7457L42.9485 16.5831C43.5851 16.1777 43.7725 15.3331 43.3671 14.6965L35.323 2.06486C34.9176 1.4283 34.0729 1.24088 33.4364 1.64626Z" fill="#91CD86"/>
<path d="M37.4557 5.41913L41.2352 11.3485C40.6709 11.7078 40.183 12.1748 39.7992 12.7227C39.4154 13.2706 39.1434 13.8888 38.9985 14.5418C38.8536 15.1949 38.8388 15.8701 38.9549 16.5289C39.071 17.1877 39.3157 17.8172 39.6751 18.3814C39.7184 18.4497 39.7639 18.5169 39.8095 18.5829L14.4282 34.7473C14.3872 34.6789 14.3451 34.6084 14.3018 34.54C13.9428 33.9755 13.476 33.4872 12.9282 33.1031C12.3804 32.719 11.7624 32.4466 11.1093 32.3014C10.4562 32.1562 9.78088 32.1411 9.12196 32.257C8.46303 32.3728 7.83338 32.6173 7.26897 32.9765L3.4895 27.0449C4.05375 26.6855 4.54169 26.2186 4.92547 25.6707C5.30924 25.1228 5.58133 24.5046 5.7262 23.8516C5.87107 23.1985 5.88587 22.5233 5.76978 21.8645C5.65368 21.2057 5.40895 20.5762 5.04957 20.012C5.0063 19.9437 4.96075 19.8765 4.9152 19.8105L30.2919 3.64612C30.3329 3.71444 30.3751 3.78504 30.4183 3.85337C30.7772 4.4187 31.244 4.90771 31.7921 5.29244C32.3402 5.67717 32.9587 5.95005 33.6124 6.09548C34.266 6.24091 34.9419 6.25603 35.6014 6.13997C36.2609 6.02392 36.891 5.77896 37.4557 5.41913Z" fill="#A9EA9C"/>
<path d="M10.5575 37.6453C10.2123 37.6459 9.87255 37.5592 9.56976 37.3934C9.26698 37.2276 9.01098 36.988 8.82552 36.6968L0.780347 24.0636C0.488352 23.6052 0.390417 23.0495 0.508082 22.5188C0.625747 21.9882 0.949377 21.526 1.40779 21.2339L33.0647 1.07142C33.5231 0.779428 34.0788 0.681493 34.6095 0.799159C35.1401 0.916824 35.6023 1.24045 35.8944 1.69887L43.9384 14.3309C44.2304 14.7893 44.3284 15.345 44.2107 15.8757C44.093 16.4063 43.7694 16.8685 43.311 17.1606L11.6541 37.3231C11.3268 37.5329 10.9463 37.6447 10.5575 37.6453ZM34.1635 2.11678C34.0348 2.11662 33.9087 2.15337 33.8003 2.22269L2.14228 22.3863C1.99026 22.4843 1.88332 22.6386 1.8449 22.8154C1.80648 22.9921 1.83971 23.1769 1.9373 23.3292L9.97792 35.9612C10.0761 36.113 10.2305 36.2197 10.4072 36.2579C10.584 36.2961 10.7686 36.2627 10.9208 36.165L42.5822 16.0094C42.735 15.9121 42.8428 15.7581 42.8821 15.5813C42.9214 15.4045 42.8889 15.2193 42.7917 15.0665L34.7466 2.43221C34.6489 2.28003 34.495 2.17274 34.3184 2.13386C34.2676 2.12243 34.2156 2.1167 34.1635 2.11678Z" fill="#1D6855"/>
<path d="M3.89595 23.1834L9.52244 19.5998C9.70692 19.4859 9.53611 19.1864 9.35049 19.3049L3.72286 22.8839C3.53838 22.9978 3.70919 23.2973 3.89481 23.1789L3.89595 23.1834Z" fill="white"/>
<path d="M10.3413 19.0737L13.1038 17.3144C13.2883 17.2005 13.1175 16.901 12.9319 17.0194L10.1682 18.7788C9.9837 18.8927 10.1545 19.1921 10.3401 19.0737H10.3413Z" fill="white"/>
<path d="M11.2807 35.2278L24.3397 26.9151L26.1617 25.7513C26.3462 25.6374 26.1754 25.3379 25.9898 25.4563L12.9364 33.7737L11.1145 34.9374C10.93 35.0513 11.1008 35.3508 11.2864 35.2324L11.2807 35.2278Z" fill="white"/>
<path d="M30.0824 23.3257L39.7115 17.1937L41.0849 16.3191C41.2693 16.2052 41.0985 15.9057 40.9129 16.0242L31.2849 22.1585L29.9116 23.0331C29.7271 23.147 29.8979 23.4465 30.0835 23.328L30.0824 23.3257Z" fill="white"/>
<path d="M23.6258 19.5098C23.2762 18.9609 22.7262 18.7958 21.8846 18.9803C21.2583 19.0942 20.9736 19.1363 20.8188 18.8869C20.7049 18.7036 20.7687 18.4041 21.1513 18.1604C21.424 17.9796 21.7367 17.8678 22.0623 17.8347L21.8163 17.008C21.4568 17.0502 21.1119 17.1749 20.8085 17.3724L20.3849 16.7051L19.7188 17.1287L20.1902 17.87C19.7233 18.3961 19.6584 19.019 19.9852 19.5326C20.3451 20.102 20.9839 20.1828 21.7821 20.0029C22.3435 19.856 22.6225 19.889 22.7706 20.1168C22.9402 20.3832 22.8298 20.6861 22.4289 20.9412C22.0901 21.1483 21.7099 21.2785 21.3153 21.3227L21.5715 22.1653C21.964 22.1127 22.3419 21.9818 22.6829 21.7805L23.1088 22.45L23.7749 22.0264L23.669 21.8602L23.3172 21.3067C23.9252 20.7135 23.9628 20.0393 23.6258 19.5098Z" fill="#34B67A"/>
<path d="M21.7592 26.2808C20.5961 26.2826 19.4526 25.9813 18.4414 25.4066C17.4302 24.832 16.5862 24.0037 15.9926 23.0035C15.399 22.0033 15.0762 20.8657 15.0562 19.7028C15.0361 18.5398 15.3194 17.3918 15.8782 16.3717C16.4369 15.3516 17.2519 14.4947 18.2426 13.8855C19.2334 13.2763 20.3658 12.9357 21.5283 12.8974C22.6907 12.8591 23.8431 13.1244 24.8718 13.6671C25.9006 14.2098 26.7701 15.0112 27.3948 15.9923C28.039 17.0033 28.3998 18.1689 28.4394 19.367C28.4791 20.5652 28.1962 21.7521 27.6202 22.8035C27.0443 23.8549 26.1965 24.7323 25.1655 25.344C24.1344 25.9557 22.958 26.2793 21.7592 26.2808ZM21.7376 14.0302C20.5041 14.0321 19.3063 14.4442 18.3328 15.2017C17.3593 15.9592 16.6654 17.0189 16.3604 18.2141C16.0554 19.4093 16.1567 20.672 16.6482 21.8033C17.1397 22.9346 17.9936 23.8703 19.0754 24.4629C20.1571 25.0556 21.4053 25.2716 22.6233 25.0769C23.8413 24.8822 24.96 24.2879 25.8031 23.3876C26.6462 22.4872 27.1658 21.332 27.2802 20.1038C27.3946 18.8757 27.0972 17.6443 26.4348 16.6038C26.0445 15.9872 25.5357 15.4541 24.938 15.0355C24.3403 14.6168 23.6655 14.3208 22.9526 14.1646C22.5537 14.0757 22.1463 14.0306 21.7376 14.0302Z" fill="#91CD86"/>
<path d="M38.6937 10.879L2.45358 20.6574C1.72495 20.854 1.29365 21.604 1.49025 22.3326L5.39144 36.7911C5.58804 37.5197 6.33809 37.951 7.06672 37.7544L43.3068 27.9761C44.0355 27.7795 44.4668 27.0294 44.2702 26.3008L40.369 11.8424C40.1724 11.1137 39.4223 10.6824 38.6937 10.879Z" fill="#91CD86"/>
<path d="M41.4024 15.678L43.2346 22.4706C42.5887 22.6447 41.9835 22.9444 41.4534 23.3525C40.9234 23.7606 40.4789 24.2691 40.1454 24.849C39.8118 25.4289 39.5958 26.0689 39.5096 26.7323C39.4235 27.3956 39.4688 28.0695 39.6431 28.7154C39.6647 28.794 39.6875 28.8714 39.7114 28.9431L10.6588 36.7856C10.6406 36.7082 10.6212 36.6285 10.6007 36.5499C10.4266 35.904 10.1269 35.2987 9.71877 34.7687C9.31067 34.2386 8.80215 33.7941 8.22225 33.4606C7.64235 33.1271 7.00243 32.9111 6.33904 32.8249C5.67565 32.7387 5.00178 32.784 4.35591 32.9583L2.52368 26.1658C3.16958 25.9916 3.77484 25.6919 4.3049 25.2838C4.83497 24.8757 5.27945 24.3672 5.61296 23.7873C5.94648 23.2074 6.1625 22.5675 6.24868 21.9041C6.33487 21.2407 6.28953 20.5668 6.11525 19.9209C6.09362 19.8424 6.07084 19.7649 6.04693 19.6932L35.0995 11.8507C35.1177 11.9281 35.1371 12.0079 35.1576 12.0864C35.3317 12.7323 35.6314 13.3376 36.0395 13.8676C36.4476 14.3977 36.9562 14.8422 37.5361 15.1757C38.116 15.5092 38.7559 15.7252 39.4193 15.8114C40.0827 15.8976 40.7565 15.8523 41.4024 15.678Z" fill="#A9EA9C"/>
<path d="M6.70873 38.4858C6.25849 38.4841 5.82121 38.3349 5.46393 38.0609C5.10665 37.787 4.84909 37.4034 4.73074 36.969L0.830573 22.507C0.760642 22.247 0.74264 21.9757 0.777596 21.7087C0.812551 21.4416 0.89978 21.1841 1.0343 20.9508C1.16881 20.7176 1.34798 20.5131 1.56156 20.349C1.77514 20.185 2.01894 20.0647 2.27905 19.995L38.5159 10.2223C38.7758 10.1522 39.047 10.1339 39.3139 10.1685C39.5809 10.2032 39.8384 10.2901 40.0718 10.4243C40.3052 10.5585 40.5099 10.7373 40.6741 10.9506C40.8384 11.1639 40.959 11.4075 41.0291 11.6674L44.9293 26.1293C44.9994 26.3892 45.0177 26.6604 44.983 26.9274C44.9484 27.1943 44.8615 27.4519 44.7273 27.6852C44.5931 27.9186 44.4143 28.1233 44.201 28.2875C43.9877 28.4518 43.7441 28.5724 43.4842 28.6425L7.2428 38.4151C7.06865 38.4621 6.88908 38.4858 6.70873 38.4858ZM39.0488 11.5171C38.9892 11.5172 38.9298 11.5253 38.8723 11.541L2.63091 21.317C2.54386 21.3404 2.46229 21.3807 2.3909 21.4357C2.3195 21.4907 2.25969 21.5593 2.21492 21.6375C2.17015 21.7158 2.14129 21.8021 2.13002 21.8915C2.11874 21.9809 2.12527 22.0717 2.14923 22.1586L6.0494 36.6205C6.09661 36.7953 6.21127 36.9442 6.36821 37.0345C6.52514 37.1249 6.71151 37.1492 6.88637 37.1022L43.1278 27.3261C43.2152 27.3034 43.2973 27.2635 43.3692 27.2089C43.4412 27.1542 43.5015 27.0858 43.5469 27.0077C43.5922 26.9295 43.6216 26.8431 43.6333 26.7535C43.645 26.664 43.6388 26.5729 43.6152 26.4858L39.7093 12.0238C39.6693 11.8789 39.583 11.751 39.4635 11.6597C39.3441 11.5685 39.198 11.5187 39.0477 11.5182L39.0488 11.5171Z" fill="#1D6855"/>
<path d="M7.51707 36.3016L22.4641 32.2693L24.556 31.7C24.5984 31.6869 24.6341 31.6577 24.6554 31.6187C24.6767 31.5798 24.682 31.534 24.6702 31.4912C24.6583 31.4484 24.6302 31.4119 24.5919 31.3894C24.5536 31.367 24.508 31.3603 24.4649 31.3709L9.5201 35.4088L7.42825 35.9782C7.3858 35.9913 7.35013 36.0205 7.32882 36.0594C7.3075 36.0984 7.3022 36.1442 7.31405 36.187C7.3259 36.2298 7.35397 36.2663 7.3923 36.2888C7.43063 36.3112 7.4762 36.3179 7.51934 36.3073L7.51707 36.3016Z" fill="white"/>
<path d="M29.0198 30.5647L40.0417 27.5914L41.6131 27.169C41.6556 27.1559 41.6912 27.1267 41.7125 27.0877C41.7339 27.0488 41.7392 27.003 41.7273 26.9602C41.7155 26.9174 41.6874 26.8809 41.6491 26.8584C41.6107 26.8359 41.5652 26.8293 41.522 26.8399L30.5002 29.8131L28.9253 30.2356C28.8829 30.2487 28.8472 30.2778 28.8259 30.3168C28.8046 30.3558 28.7993 30.4015 28.8111 30.4443C28.823 30.4872 28.851 30.5237 28.8894 30.5461C28.9277 30.5686 28.9733 30.5753 29.0164 30.5647H29.0198Z" fill="white"/>
<path d="M23.9913 24.9951C23.8216 24.3665 23.3468 24.0454 22.4881 23.9703C21.855 23.8963 21.5772 23.8484 21.4997 23.5626C21.4428 23.3531 21.5965 23.0866 22.0349 22.9682C22.3508 22.8767 22.6843 22.8638 23.0063 22.9306L23.0188 22.0686C22.6632 22.0015 22.2968 22.0175 21.9484 22.1153L21.7423 21.35L20.9805 21.5561L21.2082 22.4045C20.6058 22.7666 20.3576 23.3417 20.5159 23.9293C20.6901 24.5772 21.2754 24.8482 22.0896 24.9154C22.6692 24.9427 22.9254 25.0578 23.0006 25.3242C23.0826 25.6294 22.8867 25.8868 22.4312 26.0075C22.0458 26.1042 21.6438 26.1151 21.2538 26.0394L21.2458 26.9207C21.6363 26.9878 22.0363 26.9758 22.4221 26.8854L22.6293 27.6518L23.3912 27.4457L23.3399 27.2555L23.1691 26.6224C23.915 26.2329 24.1553 25.6009 23.9913 24.9951Z" fill="#34B67A"/>
<path d="M22.1658 31.2058C20.9171 31.2038 19.6938 30.8527 18.6341 30.192C17.5745 29.5314 16.7207 28.5876 16.1692 27.4673C15.6176 26.3469 15.3904 25.0947 15.5131 23.852C15.6358 22.6093 16.1036 21.4257 16.8636 20.4349C17.6236 19.4441 18.6455 18.6855 19.8139 18.2449C20.9824 17.8043 22.2507 17.6992 23.4757 17.9415C24.7007 18.1838 25.8335 18.7639 26.7462 19.6161C27.6589 20.4683 28.3151 21.5588 28.6407 22.7643C28.9071 23.7577 28.9413 24.799 28.7409 25.8077C28.5404 26.8165 28.1106 27.7656 27.4847 28.5816C26.8588 29.3976 26.0535 30.0588 25.1312 30.5138C24.2089 30.9688 23.1943 31.2056 22.1658 31.2058ZM22.1749 18.9519C21.0138 18.9521 19.8819 19.3162 18.9383 19.993C17.9947 20.6697 17.2869 21.6251 16.9142 22.7248C16.5416 23.8246 16.5229 25.0135 16.8608 26.1244C17.1987 27.2353 17.8761 28.2125 18.798 28.9185C19.7198 29.6246 20.8397 30.0241 22.0003 30.0609C23.1609 30.0976 24.3039 29.7699 25.2686 29.1236C26.2333 28.4773 26.9712 27.545 27.3788 26.4577C27.7863 25.3704 27.8429 24.1827 27.5407 23.0616C27.2244 21.8809 26.5268 20.8378 25.5564 20.0946C24.586 19.3514 23.3972 18.9496 22.1749 18.9519Z" fill="#91CD86"/>
<path d="M40.1875 21.7162L2.67872 20.2819C1.92458 20.253 1.28985 20.841 1.26101 21.5951L0.688749 36.5597C0.65991 37.3138 1.24788 37.9486 2.00202 37.9774L39.5108 39.4118C40.2649 39.4406 40.8996 38.8527 40.9285 38.0985L41.5007 23.1339C41.5296 22.3798 40.9416 21.7451 40.1875 21.7162Z" fill="#91CD86"/>
<path d="M41.3466 27.1052L41.0768 34.1346C40.4081 34.1089 39.7409 34.2151 39.1134 34.4473C38.4858 34.6794 37.9101 35.033 37.4192 35.4877C36.9283 35.9424 36.5319 36.4894 36.2524 37.0974C35.973 37.7054 35.8161 38.3625 35.7907 39.0312V39.2737L5.72811 38.1213C5.72811 38.0416 5.7395 37.9608 5.74178 37.8788C5.76754 37.2102 5.66131 36.543 5.42914 35.9154C5.19698 35.2878 4.84343 34.7122 4.38871 34.2213C3.93398 33.7304 3.38699 33.3339 2.77898 33.0545C2.17098 32.7751 1.51387 32.6182 0.845215 32.5928L1.1151 25.5634C1.78374 25.5891 2.45091 25.4829 3.07848 25.2507C3.70605 25.0186 4.28173 24.665 4.77262 24.2103C5.26351 23.7556 5.65999 23.2086 5.93942 22.6006C6.21884 21.9926 6.37572 21.3355 6.40111 20.6668C6.40111 20.586 6.40111 20.504 6.40111 20.4243L36.4637 21.5767C36.4637 21.6564 36.4523 21.7372 36.4501 21.8192C36.4243 22.4879 36.5305 23.155 36.7627 23.7826C36.9949 24.4102 37.3484 24.9858 37.8031 25.4767C38.2579 25.9676 38.8049 26.3641 39.4129 26.6435C40.0209 26.923 40.678 27.0798 41.3466 27.1052Z" fill="#A9EA9C"/>
<path d="M39.5612 40.0993H39.4815L1.97263 38.66C1.70359 38.6498 1.43918 38.5868 1.19451 38.4745C0.949834 38.3621 0.729686 38.2027 0.546639 38.0053C0.363593 37.8079 0.221234 37.5763 0.127693 37.3238C0.0341525 37.0714 -0.00873675 36.803 0.00147505 36.5339L0.570843 21.5687C0.581114 21.2996 0.644287 21.0353 0.756755 20.7906C0.869223 20.546 1.02878 20.3259 1.22632 20.143C1.42385 19.9601 1.65549 19.8178 1.90801 19.7244C2.16052 19.631 2.42897 19.5883 2.698 19.5987L40.2068 21.0357C40.4759 21.046 40.7402 21.1092 40.9849 21.2217C41.2295 21.3341 41.4496 21.4937 41.6325 21.6912C41.8154 21.8888 41.9577 22.1204 42.0511 22.3729C42.1445 22.6254 42.1872 22.8939 42.1768 23.1629L41.6075 38.1282C41.5872 38.6575 41.3627 39.1584 40.9813 39.5258C40.5998 39.8933 40.0908 40.0988 39.5612 40.0993ZM39.5338 38.7328C39.6236 38.7363 39.7131 38.7221 39.7974 38.691C39.8816 38.6599 39.9589 38.6124 40.0248 38.5514C40.0907 38.4904 40.1439 38.417 40.1814 38.3353C40.2189 38.2537 40.2399 38.1655 40.2433 38.0758L40.8126 23.1105C40.8161 23.0208 40.8019 22.9312 40.7708 22.847C40.7397 22.7627 40.6922 22.6855 40.6312 22.6196C40.5702 22.5537 40.4967 22.5005 40.4151 22.463C40.3335 22.4255 40.2453 22.4045 40.1556 22.4011L2.65131 20.9651C2.56129 20.961 2.47134 20.9747 2.38665 21.0055C2.30195 21.0363 2.22418 21.0835 2.15782 21.1445C2.09146 21.2055 2.03781 21.279 1.99997 21.3608C1.96213 21.4425 1.94084 21.531 1.93733 21.6211L1.36796 36.5863C1.36445 36.6761 1.37867 36.7656 1.40981 36.8499C1.44094 36.9341 1.48838 37.0114 1.5494 37.0773C1.61043 37.1431 1.68385 37.1964 1.76545 37.2339C1.84706 37.2713 1.93526 37.2924 2.02501 37.2958L39.5338 38.7328Z" fill="#1D6855"/>
<path d="M27.6431 23.9714L34.3093 24.2265C34.7489 24.2436 34.7489 23.5603 34.3093 23.5432L27.6431 23.2882C27.2036 23.2711 27.2036 23.9543 27.6431 23.9714Z" fill="white"/>
<path d="M36.064 24.2641L39.3368 24.3893C39.7763 24.4064 39.7763 23.7232 39.3368 23.7061L36.064 23.5808C35.6245 23.5637 35.6245 24.247 36.064 24.2641Z" fill="white"/>
<path d="M27.9005 16.4034L34.3833 14.8296C34.8103 14.726 34.6293 14.0667 34.2011 14.1703L27.7183 15.744C27.2912 15.8477 27.4723 16.507 27.9005 16.4034Z" fill="white"/>
<path d="M36.0802 14.3878L39.2629 13.618C39.6899 13.5144 39.5089 12.8551 39.0807 12.9587L35.898 13.7319C35.4709 13.8355 35.652 14.4949 36.0802 14.3912V14.3878Z" fill="white"/>
<path d="M3.30379 35.878L9.96995 36.1331C10.4095 36.1502 10.4095 35.467 9.96995 35.4499L3.30379 35.1948C2.86423 35.1777 2.86423 35.861 3.30379 35.878Z" fill="white"/>
<path d="M11.7303 36.165L15.003 36.2902C15.4426 36.3073 15.4426 35.6241 15.003 35.607L11.7303 35.4817C11.2907 35.4646 11.2907 36.1479 11.7303 36.165Z" fill="white"/>
<path d="M21.953 30.8254C21.9781 30.1752 21.6194 29.7266 20.8223 29.3998C20.2392 29.1401 19.9876 29.0126 19.9989 28.7165C20.0069 28.5001 20.2324 28.2906 20.6822 28.3088C21.0109 28.3154 21.333 28.4022 21.6205 28.5616L21.8892 27.7429C21.5696 27.5728 21.2149 27.4788 20.853 27.4685L20.8837 26.6713L20.0946 26.6406L20.0604 27.5186C19.3772 27.6848 18.9695 28.1608 18.9456 28.7712C18.9194 29.4419 19.4011 29.8746 20.155 30.1798C20.7004 30.3779 20.9099 30.5647 20.8997 30.8403C20.8872 31.1557 20.6241 31.3436 20.1504 31.3254C19.7519 31.3037 19.3631 31.1945 19.0117 31.0054L18.7429 31.8446C19.0974 32.0252 19.4847 32.1325 19.8817 32.16L19.8509 32.9572L20.6401 32.9879L20.648 32.7909L20.6731 32.1361C21.5146 31.9858 21.9291 31.4529 21.953 30.8254Z" fill="#91CD86"/>
<path d="M20.3678 35.4909C20.2919 35.4909 20.2186 35.4909 20.148 35.4909C19.0275 35.4479 17.9448 35.0737 17.037 34.4155C16.1291 33.7572 15.4369 32.8446 15.0477 31.7929C14.6585 30.7412 14.59 29.5978 14.8507 28.5072C15.1113 27.4165 15.6896 26.4277 16.5123 25.6657C17.3349 24.9037 18.3651 24.4027 19.4725 24.2262C20.5799 24.0497 21.7147 24.2055 22.7336 24.6739C23.7524 25.1423 24.6094 25.9024 25.1963 26.8579C25.7832 27.8134 26.0736 28.9215 26.0307 30.042C25.9719 31.5054 25.3499 32.8894 24.2946 33.9048C23.2392 34.9202 21.8323 35.4885 20.3678 35.4909ZM20.3678 25.2901C19.198 25.3145 18.083 25.7905 17.2563 26.6184C16.4295 27.4463 15.9551 28.562 15.9323 29.7318C15.9094 30.9016 16.34 32.0349 17.1339 32.8944C17.9278 33.7539 19.0233 34.273 20.1913 34.343H20.3666C21.5375 34.341 22.6623 33.8863 23.5057 33.0741C24.3491 32.2619 24.8458 31.1551 24.892 29.9851C24.9148 29.3904 24.8203 28.7971 24.6139 28.2389C24.4074 27.6808 24.093 27.1688 23.6886 26.7322C23.2843 26.2956 22.7978 25.9429 22.2572 25.6943C21.7165 25.4456 21.1321 25.306 20.5374 25.2832L20.3678 25.2901Z" fill="#91CD86"/>
</svg>
