<svg width="26" height="20" viewBox="0 0 26 20" fill="none" xmlns="http://www.w3.org/2000/svg">
<rect x="0.249899" y="0.249899" width="25.5002" height="19.5002" rx="3.74849" fill="url(#paint0_linear_6_629)" stroke="#666666" stroke-width="0.499799"/>
<path fill-rule="evenodd" clip-rule="evenodd" d="M8.83561 13.0074C8.85339 15.5276 11.228 18.532 12.8636 19.5031C12.8951 19.5195 12.9229 19.5424 12.945 19.5703C12.9671 19.5981 12.9831 19.6303 12.992 19.6647C13.0009 19.6991 13.0024 19.7351 12.9964 19.7701C12.9905 19.8051 12.9773 19.8386 12.9575 19.8682C12.9336 19.9081 12.8997 19.9412 12.8593 19.9643C12.8188 19.9874 12.773 19.9997 12.7264 20C12.6789 20.0002 12.6322 19.987 12.5918 19.962C10.8471 18.9351 8.45974 15.9332 8.30735 13.2457H0.266668C0.200107 13.2393 0.138343 13.2083 0.0934064 13.1588C0.0484697 13.1094 0.0235772 13.045 0.0235772 12.9783C0.0235772 12.9115 0.0484697 12.8471 0.0934064 12.7977C0.138343 12.7482 0.200107 12.7173 0.266668 12.7108H8.35815C8.86491 10.9376 8.86491 9.05825 8.35815 7.28506H0.266668C0.195943 7.28506 0.128115 7.25701 0.0781054 7.20709C0.0280953 7.15716 0 7.08945 0 7.01884C0 6.94824 0.0280953 6.88053 0.0781054 6.8306C0.128115 6.78068 0.195943 6.75263 0.266668 6.75263H8.30735C8.45974 4.05498 10.8572 1.06323 12.5918 0.0364021C12.6541 0.000427399 12.7282 -0.00936533 12.7977 0.00917825C12.8673 0.0277218 12.9266 0.0730827 12.9626 0.135282C12.9987 0.197481 13.0085 0.271424 12.9899 0.340844C12.9713 0.410263 12.9259 0.469473 12.8636 0.505448C11.228 1.46382 8.85339 4.47079 8.83561 6.99349C9.41731 8.95608 9.41731 11.0448 8.83561 13.0074ZM16.4753 3.86798C15.5493 2.23599 14.0946 0.954519 13.1376 0.453767C13.0744 0.42147 13.0282 0.368315 13.0093 0.305993C12.9905 0.243672 13.0004 0.177289 13.037 0.12145C13.0736 0.0656102 13.1339 0.0248873 13.2045 0.00823979C13.2751 -0.00840774 13.3503 0.000383698 13.4136 0.0326801C14.6672 0.681381 16.1245 2.16998 16.9603 3.64037C16.9804 3.66853 16.9932 3.70024 16.998 3.73326C17.0027 3.76629 16.9991 3.79983 16.9876 3.83151C16.976 3.8632 16.9567 3.89226 16.9311 3.91665C16.9054 3.94105 16.874 3.96017 16.839 3.97269C16.8018 3.99043 16.7601 3.99981 16.7178 4C16.6675 4.00004 16.6181 3.98772 16.5753 3.9644C16.5325 3.94108 16.4979 3.90769 16.4753 3.86798ZM25.7334 12.8469H17.6299C17.1233 11.1068 17.1233 9.26257 17.6299 7.52249H25.7334C25.8041 7.52249 25.8719 7.49496 25.9219 7.44597C25.9719 7.39698 26 7.33053 26 7.26124C26 7.19196 25.9719 7.12551 25.9219 7.07652C25.8719 7.02752 25.8041 7 25.7334 7H17.4243C17.3665 7.00065 17.3105 7.01968 17.2647 7.05424C17.2189 7.08879 17.1858 7.13699 17.1704 7.19158C16.5802 9.13151 16.5802 11.1981 17.1704 13.138C17.1526 15.6111 14.779 18.5594 13.144 19.5123C13.1116 19.5276 13.0829 19.5494 13.0598 19.5763C13.0366 19.6032 13.0195 19.6347 13.0097 19.6685C12.9999 19.7024 12.9975 19.7379 13.0027 19.7728C13.0079 19.8076 13.0206 19.841 13.0399 19.8706C13.0639 19.9098 13.0977 19.9423 13.1382 19.9649C13.1786 19.9876 13.2244 19.9997 13.271 20C13.3185 20.0001 13.3651 19.9872 13.4055 19.9627C15.1394 18.9675 17.536 16.0092 17.6883 13.3719H25.7334C25.8 13.3655 25.8617 13.3351 25.9066 13.2866C25.9515 13.2381 25.9764 13.1749 25.9764 13.1094C25.9764 13.0439 25.9515 12.9807 25.9066 12.9322C25.8617 12.8836 25.8 12.8532 25.7334 12.8469ZM13.2222 1.08427C13.3044 1.02932 13.4011 1 13.5 1C13.6326 1 13.7598 1.05268 13.8536 1.14645C13.9473 1.24021 14 1.36739 14 1.5C14 1.59889 13.9707 1.69556 13.9157 1.77779C13.8608 1.86001 13.7827 1.9241 13.6913 1.96194C13.6 1.99978 13.4994 2.00969 13.4025 1.99039C13.3055 1.9711 13.2164 1.92348 13.1464 1.85355C13.0765 1.78363 13.0289 1.69454 13.0096 1.59755C12.9903 1.50055 13.0002 1.40002 13.0381 1.30866C13.0759 1.2173 13.14 1.13921 13.2222 1.08427Z" fill="#666666"/>
<defs>
<linearGradient id="paint0_linear_6_629" x1="-2.47619" y1="-4.02564e-07" x2="28.2771" y2="19.7314" gradientUnits="userSpaceOnUse">
<stop stop-color="#DDD9D6"/>
<stop offset="0.212761" stop-color="#8A868C"/>
<stop offset="0.548384" stop-color="#F2F3F3" stop-opacity="0.8"/>
<stop offset="0.914316" stop-color="#807C80"/>
<stop offset="1" stop-color="#A6A8AB"/>
</linearGradient>
</defs>
</svg>
