<svg width="20" height="13" viewBox="0 0 20 13" fill="none" xmlns="http://www.w3.org/2000/svg">
<path d="M1.56526 8.29155C2.41821 4.19564 5.98384 1.28536 9.9947 1.28536C14.0043 1.28536 17.5699 4.19564 18.4241 8.29155C18.458 8.45408 18.555 8.59651 18.6938 8.68751C18.8327 8.77851 19.002 8.81063 19.1645 8.7768C19.3271 8.74297 19.4695 8.64596 19.5605 8.50711C19.6515 8.36826 19.6836 8.19894 19.6498 8.03641C18.678 3.37771 14.6134 0.0346985 9.9947 0.0346985C5.37602 0.0346985 1.31138 3.37771 0.339616 8.03641C0.305783 8.19894 0.337901 8.36826 0.428904 8.50711C0.519907 8.64596 0.662341 8.74297 0.824872 8.7768C0.987402 8.81063 1.15672 8.77851 1.29557 8.68751C1.43442 8.59651 1.53143 8.45408 1.56526 8.29155ZM9.98219 3.78667C11.1431 3.78667 12.2565 4.24785 13.0774 5.06876C13.8983 5.88966 14.3595 7.00304 14.3595 8.16398C14.3595 9.32491 13.8983 10.4383 13.0774 11.2592C12.2565 12.0801 11.1431 12.5413 9.98219 12.5413C8.82126 12.5413 7.70787 12.0801 6.88697 11.2592C6.06607 10.4383 5.60489 9.32491 5.60489 8.16398C5.60489 7.00304 6.06607 5.88966 6.88697 5.06876C7.70787 4.24785 8.82126 3.78667 9.98219 3.78667Z" fill="#6A707C"/>
</svg>
